<svg width="78" height="79" viewBox="0 0 78 79" fill="none" xmlns="http://www.w3.org/2000/svg">
<g clip-path="url(#clip0_109_33)">
<path d="M39 0.5C17.4611 0.5 0 17.9611 0 39.5C0 57.7894 12.5923 73.1367 29.5792 77.3518V51.4184H21.5374V39.5H29.5792V34.3645C29.5792 21.0904 35.5867 14.9378 48.619 14.9378C51.09 14.9378 55.3535 15.423 57.0976 15.9066V26.7096C56.1772 26.6128 54.5782 26.5645 52.5923 26.5645C46.1978 26.5645 43.7268 28.9872 43.7268 35.2849V39.5H56.4658L54.2771 51.4184H43.7268V78.2145C63.038 75.8823 78.0016 59.4399 78.0016 39.5C78 17.9611 60.5389 0.5 39 0.5Z" fill="white"/>
</g>
<defs>
<clipPath id="clip0_109_33">
<rect width="78" height="78" fill="white" transform="translate(0 0.5)"/>
</clipPath>
</defs>
</svg>
