<svg width="78" height="79" viewBox="0 0 78 79" fill="none" xmlns="http://www.w3.org/2000/svg">
<g clip-path="url(#clip0_109_32)">
<path d="M39 7.52305C49.4203 7.52305 50.6543 7.56875 54.7523 7.75156C58.5609 7.91914 60.6176 8.55898 61.9887 9.09219C63.8016 9.79297 65.1117 10.6461 66.4676 12.002C67.8387 13.373 68.6766 14.668 69.3773 16.4809C69.9106 17.852 70.5504 19.9238 70.718 23.7172C70.9008 27.8305 70.9465 29.0645 70.9465 39.4695C70.9465 49.8898 70.9008 51.1238 70.718 55.2219C70.5504 59.0305 69.9106 61.0871 69.3773 62.4582C68.6766 64.2711 67.8234 65.5813 66.4676 66.9371C65.0965 68.3082 63.8016 69.1461 61.9887 69.8469C60.6176 70.3801 58.5457 71.0199 54.7523 71.1875C50.6391 71.3703 49.4051 71.416 39 71.416C28.5797 71.416 27.3457 71.3703 23.2477 71.1875C19.4391 71.0199 17.3824 70.3801 16.0113 69.8469C14.1984 69.1461 12.8883 68.293 11.5324 66.9371C10.1613 65.566 9.32344 64.2711 8.62266 62.4582C8.08945 61.0871 7.44961 59.0152 7.28203 55.2219C7.09922 51.1086 7.05352 49.8746 7.05352 39.4695C7.05352 29.0492 7.09922 27.8152 7.28203 23.7172C7.44961 19.9086 8.08945 17.852 8.62266 16.4809C9.32344 14.668 10.1766 13.3578 11.5324 12.002C12.9035 10.6309 14.1984 9.79297 16.0113 9.09219C17.3824 8.55898 19.4543 7.91914 23.2477 7.75156C27.3457 7.56875 28.5797 7.52305 39 7.52305ZM39 0.5C28.4121 0.5 27.0867 0.545703 22.9277 0.728516C18.784 0.911328 15.9352 1.58164 13.4672 2.54141C10.8926 3.54687 8.71406 4.87227 6.55078 7.05078C4.37227 9.21406 3.04688 11.3926 2.04141 13.952C1.08164 16.4352 0.411328 19.2687 0.228516 23.4125C0.0457031 27.5867 0 28.9121 0 39.5C0 50.0879 0.0457031 51.4133 0.228516 55.5723C0.411328 59.716 1.08164 62.5648 2.04141 65.0328C3.04688 67.6074 4.37227 69.7859 6.55078 71.9492C8.71406 74.1125 10.8926 75.4531 13.452 76.4434C15.9352 77.4031 18.7688 78.0734 22.9125 78.2562C27.0715 78.4391 28.3969 78.4848 38.9848 78.4848C49.5727 78.4848 50.8981 78.4391 55.057 78.2562C59.2008 78.0734 62.0496 77.4031 64.5176 76.4434C67.077 75.4531 69.2555 74.1125 71.4188 71.9492C73.582 69.7859 74.9227 67.6074 75.9129 65.0481C76.8727 62.5648 77.543 59.7313 77.7258 55.5875C77.9086 51.4285 77.9543 50.1031 77.9543 39.5152C77.9543 28.9273 77.9086 27.602 77.7258 23.443C77.543 19.2992 76.8727 16.4504 75.9129 13.9824C74.9531 11.3926 73.6277 9.21406 71.4492 7.05078C69.2859 4.8875 67.1074 3.54688 64.5481 2.55664C62.0648 1.59687 59.2313 0.926563 55.0875 0.74375C50.9133 0.545703 49.5879 0.5 39 0.5Z" fill="white"/>
<path d="M39 19.4668C27.9398 19.4668 18.9668 28.4398 18.9668 39.5C18.9668 50.5602 27.9398 59.5332 39 59.5332C50.0602 59.5332 59.0332 50.5602 59.0332 39.5C59.0332 28.4398 50.0602 19.4668 39 19.4668ZM39 52.4949C31.8246 52.4949 26.0051 46.6754 26.0051 39.5C26.0051 32.3246 31.8246 26.5051 39 26.5051C46.1754 26.5051 51.9949 32.3246 51.9949 39.5C51.9949 46.6754 46.1754 52.4949 39 52.4949Z" fill="white"/>
<path d="M64.5023 18.6745C64.5023 21.2644 62.4 23.3515 59.8254 23.3515C57.2355 23.3515 55.1484 21.2491 55.1484 18.6745C55.1484 16.0847 57.2508 13.9976 59.8254 13.9976C62.4 13.9976 64.5023 16.0999 64.5023 18.6745Z" fill="white"/>
</g>
<defs>
<clipPath id="clip0_109_32">
<rect width="78" height="78" fill="white" transform="translate(0 0.5)"/>
</clipPath>
</defs>
</svg>
