<svg width="150" height="151" viewBox="0 0 150 151" fill="none" xmlns="http://www.w3.org/2000/svg">
<g clip-path="url(#clip0_197_35)">
<path d="M134.481 91.54C143.11 91.54 150.106 84.5445 150.106 75.9151C150.106 67.2857 143.11 60.2901 134.481 60.2901C125.851 60.2901 118.856 67.2857 118.856 75.9151C118.856 84.5445 125.851 91.54 134.481 91.54Z" fill="white"/>
<path d="M74.9995 91.123C83.6289 91.123 90.6244 84.1275 90.6244 75.498C90.6244 66.8686 83.6289 59.8731 74.9995 59.8731C66.37 59.8731 59.3745 66.8686 59.3745 75.498C59.3745 84.1275 66.37 91.123 74.9995 91.123Z" fill="white"/>
<path d="M15.625 91.123C24.2544 91.123 31.25 84.1275 31.25 75.498C31.25 66.8686 24.2544 59.8731 15.625 59.8731C6.99555 59.8731 0 66.8686 0 75.498C0 84.1275 6.99555 91.123 15.625 91.123Z" fill="white"/>
</g>
<defs>
<clipPath id="clip0_197_35">
<rect width="150" height="150" fill="white" transform="translate(0 0.5)"/>
</clipPath>
</defs>
</svg>
