<svg width="150" height="151" viewBox="0 0 150 151" fill="none" xmlns="http://www.w3.org/2000/svg">
<g clip-path="url(#clip0_26_12)">
<path d="M134.481 91.54C143.11 91.54 150.106 84.5445 150.106 75.9151C150.106 67.2857 143.11 60.2901 134.481 60.2901C125.852 60.2901 118.856 67.2857 118.856 75.9151C118.856 84.5445 125.852 91.54 134.481 91.54Z" fill="white"/>
<path d="M74.9995 91.123C83.629 91.123 90.6245 84.1275 90.6245 75.498C90.6245 66.8686 83.629 59.8731 74.9995 59.8731C66.3701 59.8731 59.3746 66.8686 59.3746 75.498C59.3746 84.1275 66.3701 91.123 74.9995 91.123Z" fill="white"/>
<path d="M15.6249 91.123C24.2544 91.123 31.2499 84.1275 31.2499 75.498C31.2499 66.8686 24.2544 59.8731 15.6249 59.8731C6.99549 59.8731 -6.10352e-05 66.8686 -6.10352e-05 75.498C-6.10352e-05 84.1275 6.99549 91.123 15.6249 91.123Z" fill="white"/>
</g>
<defs>
<clipPath id="clip0_26_12">
<rect width="150" height="150" fill="white" transform="translate(0 0.5)"/>
</clipPath>
</defs>
</svg>
