<svg width="78" height="79" viewBox="0 0 78 79" fill="none" xmlns="http://www.w3.org/2000/svg">
<path d="M0 78.5L5.48275 58.4702C2.0995 52.6073 0.32175 45.961 0.325 39.1457C0.33475 17.8387 17.6735 0.5 38.9773 0.5C49.3155 0.50325 59.02 4.53 66.3195 11.836C73.6158 19.142 77.6328 28.853 77.6295 39.1815C77.6198 60.4918 60.281 77.8305 38.9773 77.8305C32.5098 77.8273 26.1365 76.2055 20.4913 73.1245L0 78.5ZM21.4403 66.1273C26.8873 69.361 32.0872 71.298 38.9643 71.3012C56.6703 71.3012 71.0938 56.8908 71.1035 39.175C71.11 21.4235 56.7548 7.0325 38.9903 7.026C21.2712 7.026 6.8575 21.4365 6.851 39.149C6.84775 46.3802 8.96675 51.7947 12.5255 57.4595L9.27875 69.3155L21.4403 66.1273ZM58.448 48.3693C58.2075 47.9663 57.564 47.7257 56.5955 47.2415C55.6303 46.7573 50.882 44.4205 49.9948 44.0988C49.1108 43.777 48.4673 43.6145 47.8205 44.583C47.177 45.5483 45.3245 47.7257 44.7623 48.3693C44.2 49.0127 43.6345 49.094 42.6693 48.6098C41.704 48.1255 38.5905 47.1082 34.9017 43.816C32.032 41.255 30.0918 38.0928 29.5295 37.1242C28.9673 36.159 29.471 35.6357 29.952 35.1548C30.3875 34.7225 30.9173 34.027 31.4015 33.4615C31.8923 32.9025 32.0515 32.4995 32.3765 31.8528C32.6983 31.2093 32.539 30.6438 32.2953 30.1595C32.0515 29.6785 30.121 24.9237 29.3183 22.99C28.5318 21.1082 27.7355 21.3617 27.144 21.3325L25.2915 21.3C24.648 21.3 23.6015 21.5405 22.7175 22.509C21.8335 23.4775 19.3375 25.811 19.3375 30.5658C19.3375 35.3205 22.7987 39.9128 23.2798 40.5562C23.764 41.1997 30.0885 50.9562 39.7768 55.139C42.081 56.1335 43.8815 56.7282 45.2823 57.1735C47.5963 57.908 49.7023 57.804 51.3663 57.557C53.222 57.2808 57.0798 55.2202 57.8858 52.9647C58.6918 50.706 58.6918 48.7723 58.448 48.3693Z" fill="white"/>
</svg>
